<svg width="272" height="272" viewBox="0 0 272 272" fill="none" xmlns="http://www.w3.org/2000/svg">
<path d="M222.133 238L150.733 166.6C145.067 171.133 138.55 174.722 131.183 177.367C123.817 180.011 115.978 181.333 107.667 181.333C87.0778 181.333 69.6528 174.203 55.3917 159.942C41.1306 145.681 34 128.256 34 107.667C34 87.0778 41.1306 69.6528 55.3917 55.3917C69.6528 41.1306 87.0778 34 107.667 34C128.256 34 145.681 41.1306 159.942 55.3917C174.203 69.6528 181.333 87.0778 181.333 107.667C181.333 115.978 180.011 123.817 177.367 131.183C174.722 138.55 171.133 145.067 166.6 150.733L238 222.133L222.133 238ZM107.667 158.667C121.833 158.667 133.875 153.708 143.792 143.792C153.708 133.875 158.667 121.833 158.667 107.667C158.667 93.5 153.708 81.4583 143.792 71.5417C133.875 61.625 121.833 56.6667 107.667 56.6667C93.5 56.6667 81.4583 61.625 71.5417 71.5417C61.625 81.4583 56.6667 93.5 56.6667 107.667C56.6667 121.833 61.625 133.875 71.5417 143.792C81.4583 153.708 93.5 158.667 107.667 158.667Z" fill="#E8EAED"/>
</svg>
